<svg xmlns="http://www.w3.org/2000/svg" viewBox="20 24 360 360"><circle cx="123.1" cy="125.2" r="33" fill="var(--mv-hair, #3b2519)"/><circle cx="133.7" cy="99.7" r="27" fill="var(--mv-hair, #3b2519)"/><circle cx="150.7" cy="79.1" r="30" fill="var(--mv-hair, #3b2519)"/><circle cx="172.6" cy="65.4" r="33" fill="var(--mv-hair, #3b2519)"/><circle cx="197.2" cy="60.1" r="27" fill="var(--mv-hair, #3b2519)"/><circle cx="222.1" cy="63.5" r="30" fill="var(--mv-hair, #3b2519)"/><circle cx="244.7" cy="75.4" r="33" fill="var(--mv-hair, #3b2519)"/><circle cx="263" cy="94.6" r="27" fill="var(--mv-hair, #3b2519)"/><circle cx="275.2" cy="119.2" r="30" fill="var(--mv-hair, #3b2519)"/><circle cx="280" cy="146.9" r="33" fill="var(--mv-hair, #3b2519)"/><path d="M132 168 C 124 104 160 70 200 70 C 240 70 276 104 268 168 C 262 146 252 130 240 124 C 226 118 214 116 200 116 C 186 116 174 118 160 124 C 148 130 138 146 132 168 Z" fill="var(--mv-hair, #3b2519)"/><circle cx="150" cy="132" r="15" fill="var(--mv-hair, #3b2519)"/><circle cx="172" cy="121" r="15" fill="var(--mv-hair, #3b2519)"/><circle cx="196" cy="117" r="15" fill="var(--mv-hair, #3b2519)"/><circle cx="220" cy="119" r="15" fill="var(--mv-hair, #3b2519)"/><circle cx="244" cy="127" r="15" fill="var(--mv-hair, #3b2519)"/><circle cx="258" cy="144" r="12" fill="var(--mv-hair, #3b2519)"/><circle cx="141" cy="150" r="12" fill="var(--mv-hair, #3b2519)"/><path d="M160 100 q 8 -8 16 0" fill="none" stroke="var(--mv-hair-dark, #2a1b12)" stroke-width="3" stroke-linecap="round" opacity="0.5"/><path d="M204 86 q 8 -8 16 0" fill="none" stroke="var(--mv-hair-dark, #2a1b12)" stroke-width="3" stroke-linecap="round" opacity="0.5"/><path d="M236 104 q 8 -8 16 0" fill="none" stroke="var(--mv-hair-dark, #2a1b12)" stroke-width="3" stroke-linecap="round" opacity="0.5"/><path d="M180 120 q 7 -7 14 0" fill="none" stroke="var(--mv-hair-dark, #2a1b12)" stroke-width="3" stroke-linecap="round" opacity="0.5"/><path d="M226 122 q 7 -7 14 0" fill="none" stroke="var(--mv-hair-dark, #2a1b12)" stroke-width="3" stroke-linecap="round" opacity="0.5"/><path d="M140 128 q 7 -7 14 0" fill="none" stroke="var(--mv-hair-dark, #2a1b12)" stroke-width="3" stroke-linecap="round" opacity="0.5"/></svg>
