<svg xmlns="http://www.w3.org/2000/svg" viewBox="20 24 360 360"><path d="M126 166 C 122 100 160 66 200 66 C 240 66 278 100 274 166 L 278 240 L 122 240 Z" fill="var(--mv-hair-dark, #2a1b12)"/><circle cx="127.3" cy="202" r="26" fill="var(--mv-hair-dark, #2a1b12)"/><circle cx="117.3" cy="172" r="28" fill="var(--mv-hair-dark, #2a1b12)"/><circle cx="117.3" cy="140" r="30" fill="var(--mv-hair-dark, #2a1b12)"/><circle cx="127.3" cy="110" r="26" fill="var(--mv-hair-dark, #2a1b12)"/><circle cx="146" cy="85.5" r="28" fill="var(--mv-hair-dark, #2a1b12)"/><circle cx="171.3" cy="69.5" r="30" fill="var(--mv-hair-dark, #2a1b12)"/><circle cx="200" cy="64" r="26" fill="var(--mv-hair-dark, #2a1b12)"/><circle cx="228.7" cy="69.5" r="28" fill="var(--mv-hair-dark, #2a1b12)"/><circle cx="254" cy="85.5" r="30" fill="var(--mv-hair-dark, #2a1b12)"/><circle cx="272.7" cy="110" r="26" fill="var(--mv-hair-dark, #2a1b12)"/><circle cx="282.7" cy="140" r="28" fill="var(--mv-hair-dark, #2a1b12)"/><circle cx="282.7" cy="172" r="30" fill="var(--mv-hair-dark, #2a1b12)"/><circle cx="272.7" cy="202" r="26" fill="var(--mv-hair-dark, #2a1b12)"/><circle cx="134" cy="232" r="22" fill="var(--mv-hair-dark, #2a1b12)"/><circle cx="266" cy="232" r="22" fill="var(--mv-hair-dark, #2a1b12)"/><circle cx="126" cy="206" r="24" fill="var(--mv-hair-dark, #2a1b12)"/><circle cx="274" cy="206" r="24" fill="var(--mv-hair-dark, #2a1b12)"/></svg>
